Coordinates
version=1
nRows=7
nColumns=40
inDegrees=yes

Units are S.I. units (second, meters, Newtons, ...)
Angles are in degrees.

endheader
time	pelvis_tilt	pelvis_list	pelvis_rotation	pelvis_tx	pelvis_ty	pelvis_tz	hip_flexion_r	hip_adduction_r	hip_rotation_r	knee_angle_r	knee_angle_r_beta	ankle_angle_r	subtalar_angle_r	mtp_angle_r	hip_flexion_l	hip_adduction_l	hip_rotation_l	knee_angle_l	knee_angle_l_beta	ankle_angle_l	subtalar_angle_l	mtp_angle_l	lumbar_extension	lumbar_bending	lumbar_rotation	arm_flex_r	arm_add_r	arm_rot_r	elbow_flex_r	pro_sup_r	wrist_flex_r	wrist_dev_r	arm_flex_l	arm_add_l	arm_rot_l	elbow_flex_l	pro_sup_l	wrist_flex_l	wrist_dev_l
     52.70000000	     -5.85528753	     -4.08869158	      2.68227243	      1.00874807	      0.91901733	      0.43358125	      1.70201964	     -0.57834106	    -14.18463580	     25.36318991	     25.36318991	     16.92037420	     -0.97702346	     -8.13008792	     28.69614609	     -4.11723955	     -2.07588955	     26.11258022	     26.11258022	      6.41963539	    -16.49521419	      6.30952238	     -8.24527005	      4.71365451	      4.26366863	     32.23311421	    -15.24034801	      0.31047170	    109.41975162	     43.28152286	      0.00000000	      0.00000000	     -4.60350663	     -7.25558765	      0.32663513	     27.45807363	     45.11882355	      0.00000000	      0.00000000
     52.71228571	     -5.93458644	     -3.92246410	      2.49126641	      1.00956138	      0.92011062	      0.43112302	      3.08514693	     -1.47313263	    -13.88036052	     28.68874033	     28.68874033	     15.81669780	     -1.87308360	     -9.36857165	     28.03799345	     -3.88712176	     -2.40738022	     25.93614338	     25.93614338	      6.89620031	    -16.38102567	      6.17947957	     -8.14169405	      4.58963264	      4.26141421	     30.50691504	    -15.47471242	      0.42170917	    108.10987896	     43.32835522	      0.00000000	      0.00000000	     -3.92380292	     -7.24578558	      0.24159829	     28.07022726	     45.14734002	      0.00000000	      0.00000000
     52.72457143	     -5.97069731	     -3.88591696	      2.33219322	      1.01046148	      0.92119525	      0.42878884	      4.30267924	     -2.09120472	    -13.35989815	     31.42030076	     31.42030076	     12.09764318	     -4.51724333	    -16.77396415	     27.32082997	     -3.75201545	     -2.51582713	     25.73154422	     25.73154422	      7.49454048	    -16.31712398	      6.29285627	     -8.02787193	      4.57274790	      3.84664494	     29.11375288	    -15.05314054	      0.24332475	    105.53681664	     43.54787897	      0.00000000	      0.00000000	     -4.05617914	     -7.35553851	     -0.31242403	     30.29739264	     45.26969381	      0.00000000	      0.00000000
     52.73685714	     -5.95936900	     -3.77329203	      2.11975051	      1.01126654	      0.92229466	      0.42648943	      5.92932908	     -2.95498735	    -12.93057816	     35.18837080	     35.18837080	     10.43354523	     -5.54808223	    -17.52183689	     26.50558713	     -3.58812806	     -2.83485969	     25.44872287	     25.44872287	      7.94965576	    -16.13495316	      6.09723563	     -8.03829230	      4.51750954	      3.94225168	     27.21679040	    -15.33467200	      0.44298958	    103.96466853	     43.59995064	      0.00000000	      0.00000000	     -3.26932937	     -7.37422166	     -0.41294394	     30.95266849	     45.30147454	      0.00000000	      0.00000000
     52.74914286	     -5.98218863	     -3.69743599	      1.89922900	      1.01194451	      0.92320831	      0.42435045	      7.77109722	     -3.70961738	    -12.29092524	     39.08350209	     39.08350209	      8.25566363	     -7.09332042	    -18.39721684	     25.75004385	     -3.46522991	     -3.13871518	     25.17209204	     25.17209204	      8.33702155	    -16.01104570	      5.90180925	     -7.96419432	      4.46723490	      4.05528216	     25.34805090	    -15.47973956	      0.33339035	    101.68851775	     43.68646117	      0.00000000	      0.00000000	     -2.58602810	     -7.43330491	     -0.55578448	     31.99603584	     45.33729502	      0.00000000	      0.00000000
     52.76142857	     -5.96727377	     -3.70019180	      1.69048137	      1.01251470	      0.92406627	      0.42231081	      9.67912089	     -4.28001500	    -11.51027544	     42.94734497	     42.94734497	      5.63320279	     -9.03755926	    -19.18883078	     24.99306072	     -3.41519757	     -3.36359468	     24.93173282	     24.93173282	      8.69852681	    -15.92438646	      5.67069847	     -7.94386194	      4.53937409	      4.06782886	     23.62935002	    -15.37020013	     -0.01359362	     98.74361866	     43.80621939	      0.00000000	      0.00000000	     -2.05592013	     -7.54175623	     -0.71419636	     33.49817160	     45.37410224	      0.00000000	      0.00000000
     52.77371429	     -5.89530797	     -3.75717791	      1.47161819	      1.01301142	      0.92486395	      0.42047640	     11.61512677	     -4.66367919	    -10.59088573	     46.74834989	     46.74834989	      2.76611368	    -11.23103282	    -19.61428485	     24.22719296	     -3.43428554	     -3.53374419	     24.77503817	     24.77503817	      9.08752241	    -15.86217835	      5.34683971	     -7.97613679	      4.62655374	      3.89033002	     22.22435626	    -14.88231787	     -0.54300066	     94.87751972	     43.97171226	      0.00000000	      0.00000000	     -1.82777931	     -7.79195561	     -0.85886255	     35.71328629	     45.41063284	      0.00000000	      0.00000000
